<svg width="45" height="45" viewBox="0 0 16000 16000" xmlns="http://www.w3.org/2000/svg">
  <defs>
    <linearGradient id="linear" x1="0%" x2="100%" y1="0%" y2="0%">
      <stop offset="0%" stop-color="#64bbe8"></stop>
      <stop offset="80%" stop-color="#c5aed3"></stop>
    </linearGradient>
    <clipPath id="monogram-clip">
      <path d="M3255 6750 c-775 -68 -1400 -363 -1930 -912 -381 -394 -607 -825
-682 -1303 -24 -153 -24 -484 0 -613 48 -254 152 -459 311 -610 169 -161 376
-234 620 -219 331 21 600 198 795 525 l52 87 -62 28 c-34 15 -62 27 -63 25
-98 -171 -258 -261 -487 -275 -186 -11 -345 49 -489 184 -196 184 -293 420
-307 743 -19 462 131 900 432 1260 93 111 285 293 405 384 391 293 819 442
1325 462 639 26 1132 -210 1403 -671 189 -321 235 -807 116 -1230 -31 -113
-127 -309 -194 -397 -132 -173 -335 -331 -545 -422 -41 -18 -77 -35 -80 -37
-4 -4 23 -117 30 -127 2 -1 51 14 111 33 122 41 314 130 419 195 423 260 730
711 823 1205 25 138 22 428 -6 562 -59 273 -173 477 -380 675 -249 238 -575
383 -987 438 -109 14 -507 21 -630 10z"/>
<path d="M3717 6027 c-311 -346 -490 -649 -577 -979 -52 -196 -65 -309 -64
-553 0 -219 10 -346 60 -815 97 -912 97 -1313 -2 -1690 -102 -391 -318 -684
-609 -826 -267 -130 -614 -123 -852 17 -32 19 -96 72 -144 119 -69 68 -94 102
-127 170 -91 184 -95 388 -12 569 26 56 29 71 21 95 -8 19 -16 26 -29 22 -9
-2 -142 -33 -296 -67 l-279 -63 6 -136 c6 -159 29 -256 87 -378 52 -109 88
-160 184 -260 225 -234 508 -354 876 -369 518 -22 961 177 1299 582 251 302
408 683 466 1135 49 385 26 785 -85 1470 -84 521 -94 611 -94 840 0 459 100
785 338 1105 14 19 12 22 -39 57 l-53 38 -75 -83z" />
    </clipPath>
  </defs>
  <rect height="100%" width="100%" clip-path="url(#monogram-clip)" fill="url(#linear)" />
</svg>